#Comment line ignore any data following # character 
#Hierarchical Translation and Rotation (.htr) file 
[Header]	
#Header keywords are followed by a single value 
FileType HTR		#Single word string
DataType HTRS		#Translation followed by rotation and scale data
FileVersion 1		#integer
NumSegments 84		#integer
NumFrames 2		#integer
DataFrameRate 30		#integer, data frame rate in this file
EulerRotationOrder ZYX
CalibrationUnits mm
RotationUnits Degrees
GlobalAxisofGravity Y
BoneLengthAxis Y
ScaleFactor 1.00
[SegmentNames&Hierarchy]
#CHILD	PARENT
MASTER GLOBAL
root MASTER
chest root
L_mid_tent01 root
R_mid_tent01 root
spine01 root
Bip01_Neck chest
L_humerus chest
R_humerus chest
weapon_bone chest
Bip01_Head Bip01_Neck
eye_left_bone Bip01_Head
eye_right_bone Bip01_Head
L_forearm L_humerus
L_front_hand L_forearm
L_weapon_bone L_forearm
L_front_hand01_01 L_front_hand
L_front_hand02_01 L_front_hand
L_front_hand03_01 L_front_hand
L_front_hand01_02 L_front_hand01_01
L_front_hand02_02 L_front_hand02_01
L_front_hand03_02 L_front_hand03_01
R_forearm R_humerus
R_front_hand R_forearm
R_weapon_bone R_forearm
R_front_hand01_01 R_front_hand
R_front_hand02_01 R_front_hand
R_front_hand03_01 R_front_hand
R_front_hand01_02 R_front_hand01_01
R_front_hand02_02 R_front_hand02_01
R_front_hand03_02 R_front_hand03_01
null_rope01_connect L_mid_tent01
Rope1_Seg01 null_rope01_connect
Rope1_Seg02 Rope1_Seg01
Rope1_Seg03 Rope1_Seg02
Rope1_Seg04 Rope1_Seg03
Rope1_Seg05 Rope1_Seg04
Rope1_Seg06 Rope1_Seg05
Rope1_Seg07 Rope1_Seg06
Rope1_Seg09 Rope1_Seg07
L_mid_hand01 Rope1_Seg09
L_mid_hand02 Rope1_Seg09
L_mid_hand03 Rope1_Seg09
null_rope02_connect R_mid_tent01
Rope2_Seg01 null_rope02_connect
Rope2_Seg02 Rope2_Seg01
Rope2_Seg03 Rope2_Seg02
Rope2_Seg04 Rope2_Seg03
Rope2_Seg05 Rope2_Seg04
Rope2_Seg06 Rope2_Seg05
Rope2_Seg07 Rope2_Seg06
Rope2_Seg09 Rope2_Seg07
R_mid_hand01 Rope2_Seg09
R_mid_hand02 Rope2_Seg09
R_mid_hand03 Rope2_Seg09
spine02 spine01
spine03 spine02
pelvis spine03
null_rope03_connect pelvis
null_rope04_connect pelvis
Rope3_Seg01 null_rope03_connect
Rope3_Seg02 Rope3_Seg01
Rope3_Seg03 Rope3_Seg02
Rope3_Seg04 Rope3_Seg03
Rope3_Seg05 Rope3_Seg04
Rope3_Seg06 Rope3_Seg05
Rope3_Seg07 Rope3_Seg06
Rope3_Seg08 Rope3_Seg07
Rope3_Seg09 Rope3_Seg08
R_rear_hand01 Rope3_Seg09
R_rear_hand02 Rope3_Seg09
R_rear_hand03 Rope3_Seg09
Rope4_Seg01 null_rope04_connect
Rope4_Seg02 Rope4_Seg01
Rope4_Seg03 Rope4_Seg02
Rope4_Seg04 Rope4_Seg03
Rope4_Seg05 Rope4_Seg04
Rope4_Seg06 Rope4_Seg05
Rope4_Seg07 Rope4_Seg06
Rope4_Seg08 Rope4_Seg07
Rope4_Seg09 Rope4_Seg08
L_rear_hand01 Rope4_Seg09
L_rear_hand02 Rope4_Seg09
L_rear_hand03 Rope4_Seg09
[BasePosition]
#SegmentName Tx, Ty, Tz, Rx, Ry, Rz, BoneLength
MASTER 0.000000 0.000000 0.000000 -90.000000 0.000000 0.000000 10.000000 
root 0.000000 0.000000 0.000000 0.000000 0.000000 0.000000 10.000000 
chest 0.000000 0.000000 0.000000 0.000000 0.000000 0.000000 10.000000 
L_mid_tent01 0.000000 0.000000 0.000000 0.000000 0.000000 0.000000 10.000000 
R_mid_tent01 0.000000 0.000000 0.000000 0.000000 0.000000 0.000000 10.000000 
spine01 0.000000 0.000000 0.000000 0.000000 0.000000 0.000000 10.000000 
Bip01_Neck 0.000000 0.000000 0.000000 0.000000 0.000000 0.000000 10.000000 
L_humerus 0.000000 0.000000 0.000000 0.000000 0.000000 0.000000 10.000000 
R_humerus 0.000000 0.000000 0.000000 0.000000 0.000000 0.000000 10.000000 
weapon_bone 0.000000 0.000000 0.000000 0.000000 0.000000 0.000000 10.000000 
Bip01_Head 0.000000 0.000000 0.000000 0.000000 0.000000 0.000000 10.000000 
eye_left_bone 0.000000 0.000000 0.000000 0.000000 0.000000 0.000000 10.000000 
eye_right_bone 0.000000 0.000000 0.000000 0.000000 0.000000 0.000000 10.000000 
L_forearm 0.000000 0.000000 0.000000 0.000000 0.000000 0.000000 10.000000 
L_front_hand 0.000000 0.000000 0.000000 0.000000 0.000000 0.000000 10.000000 
L_weapon_bone 0.000000 0.000000 0.000000 0.000000 0.000000 0.000000 10.000000 
L_front_hand01_01 0.000000 0.000000 0.000000 0.000000 0.000000 0.000000 10.000000 
L_front_hand02_01 0.000000 0.000000 0.000000 0.000000 0.000000 0.000000 10.000000 
L_front_hand03_01 0.000000 0.000000 0.000000 0.000000 0.000000 0.000000 10.000000 
L_front_hand01_02 0.000000 0.000000 0.000000 0.000000 0.000000 0.000000 10.000000 
L_front_hand02_02 0.000000 0.000000 0.000000 0.000000 0.000000 0.000000 10.000000 
L_front_hand03_02 0.000000 0.000000 0.000000 0.000000 0.000000 0.000000 10.000000 
R_forearm 0.000000 0.000000 0.000000 0.000000 0.000000 0.000000 10.000000 
R_front_hand 0.000000 0.000000 0.000000 0.000000 0.000000 0.000000 10.000000 
R_weapon_bone 0.000000 0.000000 0.000000 0.000000 0.000000 0.000000 10.000000 
R_front_hand01_01 0.000000 0.000000 0.000000 0.000000 0.000000 0.000000 10.000000 
R_front_hand02_01 0.000000 0.000000 0.000000 0.000000 0.000000 0.000000 10.000000 
R_front_hand03_01 0.000000 0.000000 0.000000 0.000000 0.000000 0.000000 10.000000 
R_front_hand01_02 0.000000 0.000000 0.000000 0.000000 0.000000 0.000000 10.000000 
R_front_hand02_02 0.000000 0.000000 0.000000 0.000000 0.000000 0.000000 10.000000 
R_front_hand03_02 0.000000 0.000000 0.000000 0.000000 0.000000 0.000000 10.000000 
null_rope01_connect 0.000000 0.000000 0.000000 0.000000 0.000000 0.000000 10.000000 
Rope1_Seg01 0.000000 0.000000 0.000000 0.000000 0.000000 0.000000 10.000000 
Rope1_Seg02 0.000000 0.000000 0.000000 0.000000 0.000000 0.000000 10.000000 
Rope1_Seg03 0.000000 0.000000 0.000000 0.000000 0.000000 0.000000 10.000000 
Rope1_Seg04 0.000000 0.000000 0.000000 0.000000 0.000000 0.000000 10.000000 
Rope1_Seg05 0.000000 0.000000 0.000000 0.000000 0.000000 0.000000 10.000000 
Rope1_Seg06 0.000000 0.000000 0.000000 0.000000 0.000000 0.000000 10.000000 
Rope1_Seg07 0.000000 0.000000 0.000000 0.000000 0.000000 0.000000 10.000000 
Rope1_Seg09 0.000000 0.000000 0.000000 0.000000 0.000000 0.000000 10.000000 
L_mid_hand01 0.000000 0.000000 0.000000 0.000000 0.000000 0.000000 10.000000 
L_mid_hand02 0.000000 0.000000 0.000000 0.000000 0.000000 0.000000 10.000000 
L_mid_hand03 0.000000 0.000000 0.000000 0.000000 0.000000 0.000000 10.000000 
null_rope02_connect 0.000000 0.000000 0.000000 0.000000 0.000000 0.000000 10.000000 
Rope2_Seg01 0.000000 0.000000 0.000000 0.000000 0.000000 0.000000 10.000000 
Rope2_Seg02 0.000000 0.000000 0.000000 0.000000 0.000000 0.000000 10.000000 
Rope2_Seg03 0.000000 0.000000 0.000000 0.000000 0.000000 0.000000 10.000000 
Rope2_Seg04 0.000000 0.000000 0.000000 0.000000 0.000000 0.000000 10.000000 
Rope2_Seg05 0.000000 0.000000 0.000000 0.000000 0.000000 0.000000 10.000000 
Rope2_Seg06 0.000000 0.000000 0.000000 0.000000 0.000000 0.000000 10.000000 
Rope2_Seg07 0.000000 0.000000 0.000000 0.000000 0.000000 0.000000 10.000000 
Rope2_Seg09 0.000000 0.000000 0.000000 0.000000 0.000000 0.000000 10.000000 
R_mid_hand01 0.000000 0.000000 0.000000 0.000000 0.000000 0.000000 10.000000 
R_mid_hand02 0.000000 0.000000 0.000000 0.000000 0.000000 0.000000 10.000000 
R_mid_hand03 0.000000 0.000000 0.000000 0.000000 0.000000 0.000000 10.000000 
spine02 0.000000 0.000000 0.000000 0.000000 0.000000 0.000000 10.000000 
spine03 0.000000 0.000000 0.000000 0.000000 0.000000 0.000000 10.000000 
pelvis 0.000000 0.000000 0.000000 0.000000 0.000000 0.000000 10.000000 
null_rope03_connect 0.000000 0.000000 0.000000 0.000000 0.000000 0.000000 10.000000 
null_rope04_connect 0.000000 0.000000 0.000000 0.000000 0.000000 0.000000 10.000000 
Rope3_Seg01 0.000000 0.000000 0.000000 0.000000 0.000000 0.000000 10.000000 
Rope3_Seg02 0.000000 0.000000 0.000000 0.000000 0.000000 0.000000 10.000000 
Rope3_Seg03 0.000000 0.000000 0.000000 0.000000 0.000000 0.000000 10.000000 
Rope3_Seg04 0.000000 0.000000 0.000000 0.000000 0.000000 0.000000 10.000000 
Rope3_Seg05 0.000000 0.000000 0.000000 0.000000 0.000000 0.000000 10.000000 
Rope3_Seg06 0.000000 0.000000 0.000000 0.000000 0.000000 0.000000 10.000000 
Rope3_Seg07 0.000000 0.000000 0.000000 0.000000 0.000000 0.000000 10.000000 
Rope3_Seg08 0.000000 0.000000 0.000000 0.000000 0.000000 0.000000 10.000000 
Rope3_Seg09 0.000000 0.000000 0.000000 0.000000 0.000000 0.000000 10.000000 
R_rear_hand01 0.000000 0.000000 0.000000 0.000000 0.000000 0.000000 10.000000 
R_rear_hand02 0.000000 0.000000 0.000000 0.000000 0.000000 0.000000 10.000000 
R_rear_hand03 0.000000 0.000000 0.000000 0.000000 0.000000 0.000000 10.000000 
Rope4_Seg01 0.000000 0.000000 0.000000 0.000000 0.000000 0.000000 10.000000 
Rope4_Seg02 0.000000 0.000000 0.000000 0.000000 0.000000 0.000000 10.000000 
Rope4_Seg03 0.000000 0.000000 0.000000 0.000000 0.000000 0.000000 10.000000 
Rope4_Seg04 0.000000 0.000000 0.000000 0.000000 0.000000 0.000000 10.000000 
Rope4_Seg05 0.000000 0.000000 0.000000 0.000000 0.000000 0.000000 10.000000 
Rope4_Seg06 0.000000 0.000000 0.000000 0.000000 0.000000 0.000000 10.000000 
Rope4_Seg07 0.000000 0.000000 0.000000 0.000000 0.000000 0.000000 10.000000 
Rope4_Seg08 0.000000 0.000000 0.000000 0.000000 0.000000 0.000000 10.000000 
Rope4_Seg09 0.000000 0.000000 0.000000 0.000000 0.000000 0.000000 10.000000 
L_rear_hand01 0.000000 0.000000 0.000000 0.000000 0.000000 0.000000 10.000000 
L_rear_hand02 0.000000 0.000000 0.000000 0.000000 0.000000 0.000000 10.000000 
L_rear_hand03 0.000000 0.000000 0.000000 0.000000 0.000000 0.000000 10.000000 
#Beginning of Data. Separated by tabs
#Fr	Tx	Ty	Tz	Rx	Ry	Rz	SF
[MASTER]
8 -135.301712 705.799683 431.614441 0.001660 0.001660 0.001660 838.302368
9 -153.523407 791.270996 533.466309 0.001660 0.001660 0.001660 966.574097
[root]
8 100.027908 13.719883 1224.285767 -81.536537 7.271684 -97.934242 1228.441895
9 96.802765 23.933424 1149.135132 -84.381981 9.443421 -97.100929 1153.453613
[chest]
8 -84.512650 -34.090519 0.000000 4.330868 6.469402 157.585602 91.129311
9 -84.512650 -34.090519 0.000000 5.200717 7.565214 156.012009 91.129311
[L_mid_tent01]
8 27.299129 22.179081 -249.918701 -2.000524 21.339958 67.299896 252.381683
9 27.299131 22.179077 -249.918701 -1.272622 20.895391 71.891884 252.381683
[R_mid_tent01]
8 23.228794 24.509907 226.238495 171.065826 -24.109659 63.905060 228.744751
9 23.228794 24.509907 226.238495 170.928925 -22.765385 65.888168 228.744751
[spine01]
8 -0.361383 -0.195265 0.000000 -0.000001 -0.000007 22.052340 0.410763
9 -0.361383 -0.195265 0.000000 -0.000001 -0.000007 22.052340 0.410763
[Bip01_Neck]
8 165.484543 71.581718 0.000119 176.643677 -1.657967 43.431915 180.302734
9 165.484543 71.581718 0.000119 176.643677 -1.657967 43.431911 180.302734
[L_humerus]
8 -13.983130 -135.272980 -120.471481 12.467259 76.897545 102.556953 181.680161
9 -13.983130 -135.272980 -120.471481 21.212147 79.328041 111.380493 181.680161
[R_humerus]
8 -13.983309 -135.273102 125.287651 177.469757 -82.246933 -82.352661 184.909012
9 -13.983309 -135.273102 125.287651 -175.095779 -76.784248 -89.840973 184.909012
[weapon_bone]
8 235.964890 -300.705902 0.000000 0.000000 -89.951546 -128.212341 382.234833
9 235.964890 -300.705902 0.000000 0.000000 -89.951546 -128.212341 382.234833
[Bip01_Head]
8 213.673691 185.076370 20.027443 4.962490 2.797846 -43.898743 283.391632
9 213.637695 185.176682 18.730721 4.962490 2.797846 -43.898743 283.341309
[eye_left_bone]
8 -24.626970 125.451866 -64.772606 0.000000 -90.000000 -99.840431 143.318359
9 -24.626970 125.451866 -64.772606 0.000000 -90.000000 -99.840431 143.318359
[eye_right_bone]
8 -24.626970 125.451866 64.327362 0.000000 -89.980217 80.156380 143.117676
9 -24.626970 125.451866 64.327362 0.000000 -89.965736 80.156380 143.117676
[L_forearm]
8 322.776093 0.000000 -0.000119 0.000402 -0.002312 -109.744774 322.776093
9 322.776093 0.000000 -0.000119 0.000404 -0.002312 -109.801247 322.776093
[L_front_hand]
8 241.149185 -0.042021 -3.300071 -169.847839 -1.837354 -27.421877 241.171753
9 241.149185 -0.042021 -3.300071 -170.986755 -1.837834 -27.421240 241.171753
[L_weapon_bone]
8 156.183838 0.000000 0.000000 0.000014 0.000007 0.000001 156.183838
9 156.183838 0.000000 0.000000 0.000014 0.000007 0.000001 156.183838
[L_front_hand01_01]
8 86.095154 20.947098 -0.655860 -0.304872 -0.514302 68.276070 88.609184
9 86.095154 20.947098 -0.655860 -0.289102 -0.524108 66.611084 88.609184
[L_front_hand02_01]
8 86.935165 -11.437475 24.513514 144.546585 -56.255680 -49.772907 91.046425
9 86.935165 -11.437475 24.513514 142.580521 -55.269005 -47.395390 91.046425
[L_front_hand03_01]
8 86.637497 -14.123976 -20.424902 -144.732666 54.475910 -51.681892 90.126129
9 86.637497 -14.123976 -20.424902 -142.879868 53.494274 -49.391991 90.126129
[L_front_hand01_02]
8 71.020905 -0.000179 0.000030 0.000320 -0.002325 -105.665108 71.020905
9 71.020905 -0.000179 0.000030 0.000319 -0.002326 -105.601768 71.020905
[L_front_hand02_02]
8 71.020927 -0.000119 0.000060 0.000320 -0.002325 -105.665108 71.020927
9 71.020927 -0.000119 0.000060 0.000319 -0.002326 -105.601768 71.020927
[L_front_hand03_02]
8 71.020905 -0.000060 0.000060 0.000320 -0.002325 -105.665108 71.020905
9 71.020905 -0.000060 0.000060 0.000319 -0.002326 -105.601768 71.020905
[R_forearm]
8 322.776428 -0.000060 0.000030 0.201852 0.065930 -108.500885 322.776428
9 322.776428 -0.000060 0.000030 0.201806 0.066071 -108.581375 322.776428
[R_front_hand]
8 238.847015 -0.006795 2.210259 -11.454714 -10.646343 -26.312872 238.857239
9 238.847015 -0.006795 2.210259 -10.314866 -10.646361 -26.311705 238.857239
[R_weapon_bone]
8 155.664093 0.002503 -0.000030 0.003487 0.001180 -90.988930 155.664078
9 155.664093 0.002503 -0.000030 0.003487 0.001180 -90.988930 155.664078
[R_front_hand01_01]
8 87.624611 14.231146 22.918642 -144.302139 -56.138653 49.586014 91.683487
9 87.624611 14.231146 22.918642 -141.947067 -54.924732 46.726727 91.683487
[R_front_hand02_01]
8 89.356956 14.367283 -19.491137 144.866989 54.526855 52.081070 92.579636
9 89.356956 14.367283 -19.491137 142.634140 53.329136 49.315861 92.579636
[R_front_hand03_01]
8 87.286232 -22.307278 -0.143439 0.104166 -0.441299 -68.306496 90.091743
9 87.286232 -22.307278 -0.143439 0.092230 -0.445770 -66.286453 90.091743
[R_front_hand01_02]
8 71.020905 0.000060 0.000119 0.002329 -0.000293 104.364960 71.020905
9 71.020905 0.000060 0.000119 0.002329 -0.000291 104.244080 71.020905
[R_front_hand02_02]
8 71.020844 -0.000030 -0.000119 0.002329 -0.000293 104.364960 71.020836
9 71.020844 -0.000030 -0.000119 0.002329 -0.000291 104.244080 71.020836
[R_front_hand03_02]
8 71.020905 0.000000 0.000030 0.002329 -0.000293 104.364960 71.020905
9 71.020905 0.000000 0.000030 0.002329 -0.000291 104.244080 71.020905
[null_rope01_connect]
8 328.732483 0.000000 -0.000238 -135.800247 -72.106293 149.488480 328.732483
9 328.732483 0.000000 -0.000238 -147.888931 -71.830086 155.105469 328.732483
[Rope1_Seg01]
8 0.000000 0.000000 0.000000 -16.113863 6.817470 159.945068 0.000000
9 0.000000 0.000000 0.000000 -17.180475 4.400364 152.196259 0.000000
[Rope1_Seg02]
8 139.999863 -0.000179 0.000000 -1.364374 12.310916 -12.111491 139.999863
9 139.999863 -0.000179 0.000000 -0.731169 8.584705 -10.662271 139.999863
[Rope1_Seg03]
8 139.999924 0.000060 -0.000060 -0.108727 5.842289 -8.181821 139.999924
9 139.999924 0.000060 -0.000060 0.109209 4.892103 -7.458899 139.999924
[Rope1_Seg04]
8 139.999924 -0.000060 -0.000119 -3.135533 13.222196 -10.305671 139.999924
9 139.999924 -0.000060 -0.000119 0.183542 4.216726 -5.957867 139.999924
[Rope1_Seg05]
8 139.999832 0.000119 -0.000060 -47.133923 35.363132 -23.965878 139.999832
9 139.999832 0.000119 -0.000060 -5.617437 18.182325 -17.655733 139.999832
[Rope1_Seg06]
8 139.999954 0.000119 -0.000060 -72.854988 22.121094 3.602592 139.999954
9 139.999954 0.000119 -0.000060 -30.775883 21.364981 -18.609426 139.999954
[Rope1_Seg07]
8 139.999985 0.000060 0.000000 -15.330625 1.322730 9.607132 139.999985
9 139.999985 0.000060 0.000000 -100.621613 12.267044 -2.826090 139.999985
[Rope1_Seg09]
8 121.602913 0.000119 -0.000089 -89.793175 -1.359789 0.847147 121.602913
9 121.602913 0.000119 -0.000089 -89.793175 -1.359789 0.847147 121.602913
[L_mid_hand01]
8 103.859421 1.038730 8.195221 111.216118 -46.770245 -16.325294 104.187431
9 103.859421 1.038730 8.195221 110.016693 -43.583382 -14.630747 104.187431
[L_mid_hand02]
8 105.572853 -4.139662 -10.864139 -150.384232 34.904892 -44.592522 106.211075
9 105.572853 -4.139662 -10.864139 -148.402451 33.171711 -41.059570 106.211075
[L_mid_hand03]
8 104.641464 17.579376 -3.913581 -12.781255 13.855397 50.452671 106.179977
9 104.641464 17.579376 -3.913581 -13.575854 13.082141 47.042400 106.179977
[null_rope02_connect]
8 328.732849 0.000179 -0.000119 -162.952148 61.222908 -7.071426 328.732849
9 328.732849 0.000179 -0.000119 -163.343613 64.243210 -2.293413 328.732849
[Rope2_Seg01]
8 0.000045 0.000126 0.000000 75.974678 21.028049 3.462346 0.000134
9 0.000046 0.000122 0.000000 83.598282 6.289927 2.169086 0.000130
[Rope2_Seg02]
8 139.999741 -0.000060 -0.000119 -4.899936 9.459197 -14.706586 139.999756
9 139.999741 -0.000060 -0.000119 -14.185877 2.024097 -27.113277 139.999756
[Rope2_Seg03]
8 140.000107 0.000030 0.000000 -3.905486 3.322677 -30.117556 140.000107
9 140.000107 0.000030 0.000000 -8.458720 -3.135974 -34.351460 140.000107
[Rope2_Seg04]
8 139.999802 0.000000 -0.000060 -6.587982 39.186214 -0.126784 139.999802
9 139.999802 0.000000 -0.000060 -0.509841 28.585012 1.397873 139.999802
[Rope2_Seg05]
8 139.999985 -0.000060 0.000119 -30.064737 32.747101 20.686752 139.999985
9 139.999985 -0.000060 0.000119 -16.772728 45.302444 24.657837 139.999985
[Rope2_Seg06]
8 139.999893 -0.000030 -0.000119 -9.572926 4.378301 6.771520 139.999893
9 139.999893 -0.000030 -0.000119 -11.712889 9.238144 8.779729 139.999893
[Rope2_Seg07]
8 139.999893 0.000060 -0.000060 -4.839469 1.557554 3.649409 139.999893
9 139.999893 0.000060 -0.000060 -6.074029 3.215553 4.697889 139.999893
[Rope2_Seg09]
8 121.338966 0.000089 -0.000060 33.793236 -1.359788 -0.847141 121.338966
9 121.338966 0.000089 -0.000060 33.793236 -1.359788 -0.847141 121.338966
[R_mid_hand01]
8 104.680779 11.144459 -10.335981 -27.387493 40.402237 54.098232 105.778534
9 104.680779 11.144459 -10.335981 -29.481638 39.038574 50.818577 105.778534
[R_mid_hand02]
8 104.070427 2.443552 8.231699 62.946606 -56.952805 23.709984 104.424065
9 104.070427 2.443552 8.231699 64.792824 -54.379646 21.475639 104.424065
[R_mid_hand03]
8 106.028137 -11.221827 -5.996406 -173.630432 14.503003 -63.260223 106.788818
9 106.028137 -11.221827 -5.996406 -172.901596 14.168235 -60.324333 106.788818
[spine02]
8 129.756927 0.001550 0.000119 0.502274 -4.028557 -14.999044 129.756927
9 129.756927 0.001550 0.000119 0.517551 -4.026569 -15.154319 129.756927
[spine03]
8 78.614037 0.081509 -4.899006 1.981485 3.788047 17.771301 78.766571
9 78.614029 0.081512 -4.899006 1.986832 3.786148 17.859118 78.766563
[pelvis]
8 169.435242 0.051022 0.000000 -0.069478 -0.178071 16.718098 169.435257
9 169.435242 0.051022 0.000000 -0.069781 -0.177953 16.913078 169.435257
[null_rope03_connect]
8 -1.257226 -2.466202 137.391083 -43.682110 -76.621933 85.530693 137.418976
9 -1.257226 -2.466202 137.391083 -50.865574 -79.229996 90.163750 137.418976
[null_rope04_connect]
8 -1.259640 -2.480268 -137.844437 -43.682110 -76.621933 85.530693 137.872513
9 -1.259640 -2.480268 -137.844437 -50.865574 -79.229996 90.163750 137.872513
[Rope3_Seg01]
8 -0.000022 -0.000085 0.000000 22.256371 -21.003651 -91.114952 0.000088
9 -0.000023 -0.000092 0.000000 21.575706 -24.009430 -86.476906 0.000094
[Rope3_Seg02]
8 139.999924 -0.000119 0.000060 8.589400 42.555996 20.294743 139.999924
9 139.999924 -0.000119 0.000060 13.849736 42.501175 26.660408 139.999924
[Rope3_Seg03]
8 139.999924 -0.000119 0.000119 53.796051 49.309887 30.240847 139.999924
9 139.999924 -0.000119 0.000119 82.202820 52.194588 37.527718 139.999924
[Rope3_Seg04]
8 139.999924 0.000119 0.000000 11.512306 5.877541 -5.879180 139.999924
9 139.999924 0.000119 0.000000 12.726915 4.752455 -6.999088 139.999924
[Rope3_Seg05]
8 139.999924 -0.000238 0.000060 -2.284063 -7.208884 -6.335989 139.999924
9 139.999924 -0.000238 0.000060 -3.135109 -5.563547 -3.764845 139.999924
[Rope3_Seg06]
8 139.999893 -0.000119 -0.000060 1.231261 -2.985768 -5.925680 139.999893
9 139.999893 -0.000119 -0.000060 0.141432 -3.883960 -5.141430 139.999893
[Rope3_Seg07]
8 139.999771 0.000060 -0.000119 1.424170 -1.804852 -4.815504 139.999771
9 139.999771 0.000060 -0.000119 1.370547 -2.319983 -4.999443 139.999771
[Rope3_Seg08]
8 139.999985 -0.000060 0.000000 0.963345 -1.108139 -2.753000 139.999985
9 139.999985 -0.000060 0.000000 0.977374 -1.598450 -3.257210 139.999985
[Rope3_Seg09]
8 90.185997 -0.000179 -0.000060 89.793228 -1.359877 -0.847183 90.185997
9 90.185997 -0.000179 -0.000060 89.793228 -1.359877 -0.847183 90.185997
[R_rear_hand01]
8 103.366196 -6.073594 -10.757982 -170.781250 22.977589 -56.830040 104.101845
9 103.366196 -6.073594 -10.757982 -169.405167 22.402496 -53.260654 104.101845
[R_rear_hand02]
8 100.509819 12.039542 -7.992327 -23.185047 31.960989 54.046936 101.543350
9 100.509819 12.039542 -7.992327 -25.038765 30.595232 50.476662 101.543350
[R_rear_hand03]
8 101.539970 5.215704 5.435467 79.639084 -56.567936 12.539787 101.819031
9 101.539970 5.215704 5.435467 80.458870 -53.275658 11.535563 101.819031
[Rope4_Seg01]
8 0.000010 0.000038 -0.000114 -93.015839 -3.995136 -136.950516 0.000121
9 0.000010 0.000038 -0.000114 -89.875908 -10.600204 -135.952301 0.000121
[Rope4_Seg02]
8 139.999985 0.000060 0.000119 -2.029173 5.345138 5.985696 139.999985
9 139.999985 0.000060 0.000119 -0.391216 7.129229 4.517531 139.999985
[Rope4_Seg03]
8 139.999924 0.000000 -0.000238 -4.970270 7.382036 9.265991 139.999924
9 139.999924 0.000000 -0.000238 -1.135116 10.594938 6.944263 139.999924
[Rope4_Seg04]
8 139.999985 0.000000 0.000119 -16.248505 4.645998 14.229530 139.999985
9 139.999985 0.000000 0.000119 -9.306909 11.085742 11.478904 139.999985
[Rope4_Seg05]
8 139.999802 -0.000060 -0.000119 -48.092499 13.692073 22.129274 139.999802
9 139.999802 -0.000060 -0.000119 -46.077656 17.439663 14.637780 139.999802
[Rope4_Seg06]
8 139.999924 0.000000 0.000060 -58.183937 -1.265863 18.315706 139.999924
9 139.999924 0.000000 0.000060 -115.600014 7.067426 19.708620 139.999924
[Rope4_Seg07]
8 139.999802 0.000000 0.000000 -11.802816 -7.205812 2.785120 139.999802
9 139.999802 0.000000 0.000000 -5.016144 -9.838396 -1.707975 139.999802
[Rope4_Seg08]
8 139.999924 0.000000 0.000119 -5.531069 -3.988400 0.650204 139.999924
9 139.999924 0.000000 0.000119 -2.412457 -4.745464 -1.477790 139.999924
[Rope4_Seg09]
8 90.185791 0.000060 0.000060 -135.617828 2.228885 0.850567 90.185791
9 90.185791 0.000060 0.000060 -135.617828 2.228885 0.850567 90.185791
[L_rear_hand01]
8 101.696655 -8.392275 -7.654577 -31.684452 -23.583008 144.025742 102.329041
9 101.696655 -8.392275 -7.654577 -31.553307 -23.761135 143.711090 102.329041
[L_rear_hand02]
8 102.726799 -1.568258 5.773216 82.701553 38.753956 171.553619 102.900848
9 102.726799 -1.568258 5.773216 82.664513 39.085827 171.495636 102.900848
[L_rear_hand03]
8 104.552910 9.721220 -10.420293 -163.975403 -19.004421 -142.009338 105.519653
9 104.552910 9.721220 -10.420293 -164.089569 -19.094524 -141.662735 105.519653
